HIERARCHY
ROOT Joint1
{
	OFFSET 0.000000 0.000000 0.000000
	CHANNELS 6 Xposition Yposition Zposition Xrotation Yrotation Zrotation
	JOINT Joint2
	{
		OFFSET -0.000000 0.000000 1.456275
		CHANNELS 6 Xposition Yposition Zposition Xrotation Yrotation Zrotation
		JOINT Joint3
		{
			OFFSET -0.000000 0.000002 1.471446
			CHANNELS 6 Xposition Yposition Zposition Xrotation Yrotation Zrotation
			JOINT Joint4
			{
				OFFSET 0.625745 0.000000 0.917755
				CHANNELS 6 Xposition Yposition Zposition Xrotation Yrotation Zrotation
				JOINT Joint5
				{
					OFFSET -0.629534 0.000001 0.940221
					CHANNELS 6 Xposition Yposition Zposition Xrotation Yrotation Zrotation
					JOINT Joint6
					{
						OFFSET -0.000001 0.113772 1.960660
						CHANNELS 6 Xposition Yposition Zposition Xrotation Yrotation Zrotation
						JOINT Joint7
						{
							OFFSET -0.669733 -0.113771 0.388340
							CHANNELS 6 Xposition Yposition Zposition Xrotation Yrotation Zrotation
							End Site
							{
								OFFSET 0.005509 0.005509 0.438980
							}
						}
					}
				}
			}
		}
	}
}
MOTION
Frames: 24
Frame Time: 0.041667
0.000000 0.000000 0.000000 -0.000000 1.019410 -140.592655 -0.000000 0.000000 1.456275 -0.000000 6.408978 0.000001 -0.000000 0.000002 1.471445 -0.000001 -1.133458 19.721616 0.625745 0.000000 0.917755 -0.000000 32.731943 0.000002 -0.629534 0.000001 0.940221 -0.000001 1.709736 66.343595 -0.000001 0.113772 1.960660 -88.303896 77.303569 -0.000015 -0.669733 -0.113770 0.388341 -1.308140 3.369168 171.288208 
0.000000 0.000000 0.000000 -0.000000 1.019410 -140.522987 -0.000000 -0.000000 1.456275 0.000000 6.383509 0.000002 -0.000000 0.000002 1.471446 -0.000000 -1.133458 19.711834 0.625745 0.000000 0.917755 -0.000000 32.782640 0.000002 -0.629534 0.000001 0.940221 0.000000 1.709738 66.310693 -0.000001 0.113772 1.960660 -88.303882 77.309853 -0.000003 -0.669733 -0.113771 0.388340 -1.307883 3.369359 171.270204 
0.000000 0.000000 0.000000 -0.000000 1.019410 -140.392271 -0.000000 0.000000 1.456275 -0.000000 6.335730 -0.000002 -0.000000 0.000002 1.471445 -0.000000 -1.133458 19.693466 0.625745 0.000000 0.917755 -0.000001 32.877744 -0.000000 -0.629534 0.000001 0.940220 0.000001 1.709736 66.249010 -0.000001 0.113772 1.960661 -88.303909 77.321635 -0.000003 -0.669733 -0.113771 0.388340 -1.307400 3.369713 171.236462 
0.000000 0.000000 0.000000 -0.000000 1.019410 -140.188595 -0.000000 0.000000 1.456275 0.000000 6.261275 0.000001 -0.000000 0.000002 1.471445 -0.000000 -1.133457 19.664859 0.625745 0.000000 0.917755 -0.000001 33.025952 0.000003 -0.629533 0.000001 0.940221 -0.000000 1.709738 66.152861 -0.000001 0.113772 1.960660 -88.303889 77.339994 0.000005 -0.669733 -0.113771 0.388340 -1.306646 3.370265 171.183856 
0.000000 0.000000 0.000000 -0.000000 1.019410 -139.900005 -0.000000 0.000000 1.456275 0.000001 6.155784 -0.000002 -0.000000 0.000002 1.471446 -0.000000 -1.133457 19.624325 0.625745 0.000000 0.917755 -0.000002 33.235940 0.000001 -0.629534 0.000001 0.940220 -0.000001 1.709737 66.016640 -0.000001 0.113772 1.960661 -88.303903 77.365997 0.000009 -0.669733 -0.113771 0.388340 -1.305574 3.371045 171.109298 
0.000000 0.000000 0.000000 -0.000000 1.019410 -139.514578 -0.000000 -0.000000 1.456275 0.000000 6.014894 -0.000002 -0.000000 0.000002 1.471445 -0.000001 -1.133458 19.570177 0.625745 0.000000 0.917756 0.000003 33.516384 0.000001 -0.629534 0.000001 0.940220 -0.000000 1.709738 65.834711 -0.000001 0.113771 1.960660 -88.303903 77.400735 -0.000003 -0.669733 -0.113771 0.388340 -1.304146 3.372086 171.009755 
0.000000 0.000000 0.000000 -0.000000 1.019410 -139.020386 -0.000000 -0.000000 1.456275 -0.000000 5.834241 -0.000001 -0.000000 0.000002 1.471445 -0.000000 -1.133458 19.500757 0.625745 0.000000 0.917755 0.000001 33.875983 0.000000 -0.629534 0.000001 0.940221 -0.000003 1.709737 65.601433 -0.000001 0.113772 1.960660 -88.303909 77.445275 -0.000003 -0.669733 -0.113771 0.388340 -1.302312 3.373411 170.882112 
0.000000 0.000000 0.000000 -0.000000 1.019410 -138.405464 -0.000000 -0.000000 1.456275 -0.000000 5.609462 -0.000002 -0.000000 0.000002 1.471446 -0.000000 -1.133459 19.414382 0.625745 0.000000 0.917755 0.000002 34.323412 0.000003 -0.629534 0.000001 0.940221 -0.000003 1.709734 65.311177 -0.000001 0.113772 1.960660 -88.303896 77.500695 0.000009 -0.669734 -0.113772 0.388340 -1.300021 3.375063 170.723297 
0.000000 0.000000 0.000000 -0.000000 1.019410 -137.657914 -0.000000 0.000000 1.456275 -0.000000 5.336198 0.000001 -0.000000 0.000002 1.471446 -0.000000 -1.133458 19.309370 0.625745 0.000000 0.917755 -0.000001 34.867361 0.000002 -0.629534 0.000001 0.940221 -0.000001 1.709737 64.958323 -0.000001 0.113772 1.960660 -88.303896 77.568075 0.000001 -0.669734 -0.113771 0.388339 -1.297234 3.377056 170.530207 
0.000000 0.000000 0.000000 -0.000000 1.019410 -136.765782 -0.000000 -0.000000 1.456275 -0.000000 5.010083 -0.000001 -0.000000 0.000002 1.471446 -0.000001 -1.133458 19.184048 0.625745 0.000000 0.917755 -0.000002 35.516512 0.000001 -0.629534 0.000001 0.940221 -0.000003 1.709735 64.537201 -0.000001 0.113772 1.960661 -88.303889 77.648480 -0.000003 -0.669733 -0.113771 0.388340 -1.293903 3.379422 170.299770 
0.000000 0.000000 0.000000 -0.000000 1.019410 -135.717116 -0.000000 -0.000000 1.456275 -0.000000 4.626754 -0.000002 -0.000000 0.000002 1.471446 -0.000000 -1.133458 19.036740 0.625745 0.000000 0.917755 0.000001 36.279537 0.000002 -0.629533 0.000001 0.940220 -0.000001 1.709734 64.042210 -0.000001 0.113772 1.960660 -88.303896 77.742989 -0.000019 -0.669733 -0.113771 0.388340 -1.289969 3.382183 170.028926 
0.000000 0.000000 0.000000 -0.000000 1.019410 -134.500017 -0.000000 -0.000000 1.456275 0.000000 4.181850 -0.000001 -0.000000 0.000002 1.471446 -0.000000 -1.133458 18.865770 0.625745 0.000000 0.917755 -0.000000 37.165142 0.000002 -0.629534 0.000001 0.940221 -0.000003 1.709732 63.467702 -0.000001 0.113772 1.960661 -88.303896 77.852682 -0.000007 -0.669733 -0.113771 0.388340 -1.285385 3.385374 169.714560 
0.000000 0.000000 0.000000 -0.000000 1.019410 -133.113120 -0.000000 -0.000000 1.456275 0.000000 3.674882 -0.000002 -0.000000 0.000002 1.471446 -0.000000 -1.133458 18.670952 0.625745 0.000000 0.917755 0.000001 38.174286 0.000000 -0.629534 0.000001 0.940222 -0.000001 1.709740 62.813049 -0.000001 0.113772 1.960660 -88.303896 77.977674 0.000005 -0.669733 -0.113771 0.388341 -1.280142 3.388975 169.356357 
0.000000 0.000000 0.000000 -0.000000 1.019410 -131.597514 -0.000000 -0.000000 1.456275 -0.000000 3.120861 -0.000000 -0.000000 0.000002 1.471446 -0.000000 -1.133458 18.458048 0.625745 0.000000 0.917755 0.000001 39.277085 0.000001 -0.629534 0.000001 0.940221 -0.000001 1.709735 62.097648 -0.000001 0.113772 1.960661 -88.303909 78.114278 -0.000003 -0.669732 -0.113772 0.388340 -1.274390 3.392872 168.964878 
0.000000 0.000000 0.000000 -0.000000 1.019410 -130.004864 -0.000000 -0.000000 1.456275 -0.000000 2.538672 -0.000002 -0.000000 0.000002 1.471446 -0.000000 -1.133458 18.234329 0.625745 0.000000 0.917755 -0.000003 40.435960 0.000002 -0.629534 0.000001 0.940220 -0.000001 1.709737 61.345863 -0.000001 0.113772 1.960660 -88.303896 78.257814 0.000001 -0.669733 -0.113772 0.388340 -1.268314 3.396927 168.553510 
0.000000 0.000000 0.000000 -0.000000 1.019410 -128.386793 -0.000000 -0.000000 1.456275 0.000000 1.947201 0.000001 -0.000000 0.000002 1.471446 -0.000000 -1.133458 18.007036 0.625745 0.000000 0.917755 -0.000003 41.613310 0.000001 -0.629534 0.000001 0.940221 -0.000002 1.709735 60.582098 -0.000001 0.113772 1.960660 -88.303896 78.403646 0.000001 -0.669733 -0.113771 0.388340 -1.262111 3.401002 168.135584 
0.000000 0.000000 0.000000 -0.000000 1.019410 -126.788446 -0.000000 0.000000 1.456275 0.000000 1.362932 -0.000000 -0.000000 0.000002 1.471446 -0.000000 -1.133458 17.782514 0.625745 0.000000 0.917755 -0.000002 42.776324 0.000003 -0.629534 0.000001 0.940221 -0.000001 1.709737 59.827628 -0.000001 0.113772 1.960660 -88.303903 78.547708 0.000010 -0.669733 -0.113771 0.388340 -1.255957 3.404978 167.722740 
0.000000 0.000000 0.000000 -0.000000 1.019410 -125.228609 -0.000000 -0.000000 1.456275 -0.000000 0.792747 -0.000001 -0.000000 0.000002 1.471446 -0.000000 -1.133458 17.563401 0.625745 0.000000 0.917755 0.000000 43.911303 0.000002 -0.629534 0.000001 0.940221 0.000000 1.709734 59.091354 -0.000001 0.113773 1.960661 -88.303909 78.688287 0.000010 -0.669733 -0.113771 0.388340 -1.249919 3.408821 167.319841 
0.000000 0.000000 0.000000 -0.000000 1.019410 -123.719560 -0.000000 -0.000000 1.456275 0.000000 0.241126 0.000000 -0.000000 0.000002 1.471446 -0.000000 -1.133458 17.351421 0.625745 0.000000 0.917755 -0.000000 45.009331 -0.000000 -0.629533 0.000001 0.940221 -0.000000 1.709737 58.379041 -0.000001 0.113772 1.960661 -88.303896 78.824290 0.000001 -0.669733 -0.113772 0.388340 -1.244062 3.412498 166.930069 
0.000000 0.000000 0.000000 -0.000000 1.019410 -122.273568 0.000000 -0.000000 1.456275 0.000000 -0.287448 -0.000002 -0.000000 0.000002 1.471445 -0.000000 -1.133458 17.148296 0.625745 0.000000 0.917755 -0.000002 46.061478 0.000000 -0.629533 0.000001 0.940221 -0.000001 1.709739 57.696493 -0.000001 0.113772 1.960661 -88.303903 78.954617 -0.000003 -0.669733 -0.113771 0.388340 -1.238417 3.415979 166.556567 
0.000000 0.000000 0.000000 -0.000000 1.019410 -120.884048 -0.000000 -0.000000 1.456275 -0.000000 -0.795376 0.000001 -0.000000 0.000002 1.471446 -0.000000 -1.133458 16.953107 0.625745 0.000000 0.917755 -0.000002 47.072537 -0.000001 -0.629534 0.000001 0.940221 -0.000000 1.709733 57.040604 -0.000001 0.113772 1.960661 -88.303909 79.079841 -0.000003 -0.669733 -0.113771 0.388340 -1.232976 3.419295 166.197654 
0.000000 0.000000 0.000000 -0.000000 1.019410 -119.469134 -0.000000 0.000000 1.456275 -0.000000 -1.312587 0.000002 -0.000000 0.000002 1.471446 -0.000000 -1.133458 16.754355 0.625745 0.000000 0.917755 -0.000001 48.102065 -0.000000 -0.629533 0.000001 0.940221 -0.000000 1.709737 56.372727 -0.000001 0.113772 1.960661 -88.303903 79.207368 0.000003 -0.669733 -0.113771 0.388341 -1.227408 3.422634 165.832171 
0.000000 0.000000 0.000000 -0.000000 1.019410 -117.928147 -0.000000 -0.000000 1.456275 -0.000000 -1.875891 0.000000 -0.000000 0.000002 1.471446 -0.000000 -1.133458 16.537889 0.625745 0.000000 0.917755 -0.000004 49.223350 0.000001 -0.629533 0.000001 0.940221 -0.000001 1.709738 55.645336 -0.000001 0.113772 1.960660 -88.303909 79.346267 0.000013 -0.669732 -0.113771 0.388339 -1.221328 3.426227 165.434135 
0.000000 0.000000 0.000000 -0.000000 1.019410 -116.160358 -0.000000 -0.000000 1.456275 -0.000000 -2.522096 0.000002 -0.000000 0.000002 1.471445 -0.000000 -1.133459 16.289561 0.625745 0.000000 0.917754 0.000000 50.509652 0.000002 -0.629533 0.000001 0.940220 0.000000 1.709732 54.810892 -0.000001 0.113772 1.960660 -88.303903 79.505588 0.000001 -0.669733 -0.113771 0.388340 -1.214317 3.430306 164.977509 
